<svg xmlns="http://www.w3.org/2000/svg" xmlns:xlink="http://www.w3.org/1999/xlink" viewBox="0 0 31.55 32.81"><defs><style>.cls-1{fill:none;}.cls-2{isolation:isolate;}.cls-3{fill:#e3b88b;}.cls-4{mix-blend-mode:soft-light;}.cls-5{clip-path:url(#clip-path);}.cls-6{fill:#48423b;}.cls-7{clip-path:url(#clip-path-2);}.cls-8{clip-path:url(#clip-path-3);}.cls-9{clip-path:url(#clip-path-4);}.cls-10{clip-path:url(#clip-path-5);}</style><clipPath id="clip-path"><rect class="cls-1" y="14.72" width="30.78" height="18.09"/></clipPath><clipPath id="clip-path-2"><rect class="cls-1" x="6.74" y="9.67" width="19.11" height="7.31"/></clipPath><clipPath id="clip-path-3"><rect class="cls-1" x="18.42" y="2.12" width="3.74" height="5.23"/></clipPath><clipPath id="clip-path-4"><rect class="cls-1" x="16" y="19.13" width="7.12" height="3.73"/></clipPath><clipPath id="clip-path-5"><rect class="cls-1" x="2.66" y="13.2" width="5.54" height="2.95"/></clipPath></defs><title>Asset 13</title><g class="cls-2"><g id="Layer_2" data-name="Layer 2"><g id="asteroid"><path class="cls-3" d="M29.84,11.47c2.35,3.46,2,8.89.53,9.68-5,2.64-1.87,9.58-10.38,11.62-1.86.45-3.51-2.23-4.87-2C5.78,32.11,6.42,25.46,1.37,19.32c-3.95-4.8,1.06-16.23,9.54-16.7,1.49-.08,2.42-2,3.85-2.32,9-2,11.63,6.06,15.09,11.16"/><g class="cls-4"><g class="cls-5"><path class="cls-6" d="M27.84,20.29c-.9.37-1.64,1.58-1.91,4.59-.61,6.93-6.31,4.65-7.35,3S16.5,24.12,15,23.16s-4.42,1.51-5.37.25S7.54,18.22,4,19,0,15,0,14.72a6.82,6.82,0,0,0,1.36,4.6c5,6.13,4.41,12.79,13.75,11.41,1.36-.2,3,2.48,4.87,2,8.51-2,5.41-9,10.38-11.62a1.14,1.14,0,0,0,.34-.28l.07-.09c-.93-.36-2-.86-2.94-.49"/></g></g><g class="cls-4"><g class="cls-7"><path class="cls-6" d="M6.94,9.67s-1.35,3.21,2.94,2.55,2.32,3.94,3.48,4.35c3.73,1.3,2.94-1.06,9.68.11,1.07.18,1.31-5.05,2.54-5.43s-2.1-.58-2.79,1-1.06,2.91-2.71,2.4-1-2.69-2.9-3.26-3-.87-4.74-1.38-2.94,1.08-4,.59-1.56.12-1.53-1"/></g></g><g class="cls-4"><g class="cls-8"><path class="cls-6" d="M18.43,7.17c0,.73,4.42-.83,3.64-3.07s-1.89-2-1.89-2,2.06,1.6.79,2.46-2.6.64-2.54,2.58"/></g></g><g class="cls-4"><g class="cls-9"><path class="cls-6" d="M16,21.33c.16.7,6.48,2.77,7,.45s-.62-2.65-.62-2.65,1,2.43-.58,2.51-6.29-2.56-5.76-.31"/></g></g><g class="cls-4"><g class="cls-10"><path class="cls-6" d="M2.75,13.62c-.65.31,2.54,3.71,4.28,2.1s1-2.52,1-2.52-.63,2.53-1.93,1.71S4.5,12.79,2.75,13.62"/></g></g></g></g></g></svg>