<svg xmlns="http://www.w3.org/2000/svg" viewBox="0 0 78.25 143.95"><defs><style>.cls-1,.cls-2{fill:none;}.cls-1{stroke:#f2f2f2;stroke-miterlimit:10;}.cls-3{fill:#f2f2f2;}.cls-4{fill:#999;}.cls-5{fill:#29abe2;}.cls-6{fill:#ccc;}.cls-7{fill:#4d4d4d;}.cls-8{fill:#d4145a;}.cls-9{fill:#333;}.cls-10{fill:#666;}</style></defs><title>Asset 10</title><g id="Layer_2" data-name="Layer 2"><g id="austrounat"><path class="cls-1" d="M36.57,74.45c.59,4.48,3.07,8.77,4.64,13a20.13,20.13,0,0,1,.47,11,14.46,14.46,0,0,1-3.13,6.5c-1.1,1.23-3.27,1.31-4.7,2.13-3.23,1.85-4.47,5.9-4.89,9.38a6.76,6.76,0,0,1-3.36,5.41,10.47,10.47,0,0,1-5.7,1.47"/><polygon class="cls-2" points="45.67 22.87 32.93 27.03 41.74 32.43 45.67 22.87"/><polygon class="cls-2" points="32.3 25.11 45.05 20.95 36.23 15.54 32.3 25.11"/><polygon class="cls-2" points="32.05 28.85 36.99 43.95 40.95 34.3 32.05 28.85"/><polygon class="cls-2" points="42 46.07 46.64 47.5 49.25 43.71 42 46.07"/><polygon class="cls-2" points="75.21 108.85 70.28 93.74 66.31 103.4 75.21 108.85"/><polygon class="cls-2" points="25.57 8.97 30.5 24.1 34.47 14.44 25.57 8.97"/><polygon class="cls-2" points="38.77 45 51.14 40.96 51.33 40.68 42.71 35.4 38.77 45"/><polygon class="cls-2" points="45.9 19.07 40.96 3.95 37 13.61 45.9 19.07"/><polygon class="cls-2" points="52.38 38.93 47.45 23.82 43.48 33.48 52.38 38.93"/><polygon class="cls-2" points="39.2 2.98 26.43 7.15 35.26 12.57 39.2 2.98"/><polygon class="cls-2" points="61.6 114.92 74.39 110.74 65.54 105.32 61.6 114.92"/><polygon class="cls-2" points="54.88 98.77 59.82 113.88 63.78 104.22 54.88 98.77"/><polygon class="cls-2" points="68.73 88.99 63.79 73.87 59.83 83.53 68.73 88.99"/><polygon class="cls-2" points="68.5 92.79 55.76 96.95 64.57 102.35 68.5 92.79"/><polygon class="cls-2" points="48.4 78.89 53.33 94.02 57.3 84.36 48.4 78.89"/><polygon class="cls-2" points="54.08 70.31 51.07 74.35 58.6 71.89 54.08 70.31"/><polygon class="cls-2" points="61.96 73.06 61.75 72.99 49.26 77.07 58.09 82.49 61.96 73.06"/><polygon class="cls-2" points="55.13 95.03 67.88 90.86 59.06 85.46 55.13 95.03"/><path class="cls-3" d="M66.64,65a3.37,3.37,0,0,0,3.65,1.61L61.92,41a3.13,3.13,0,0,0-2.07,3.18l-.4.13,6.81,20.85Z"/><path class="cls-4" d="M64.63,69.92l-2.86.93-6.3-2.2-.15-.05L48.65,48.15l.3-.44,3.47-5,3-1L41.8,0,22.56,6.28,36.17,48l2.49-.81,6.15,1.89L30.59,53.71l0,.15-.13,0a11,11,0,0,0-7.18,7.53A11,11,0,0,0,13.1,59.58l-.1,0,0-.15L8.46,60.93l6.81,20.85,4.49-1.47,0,.14.1,0a11,11,0,0,0,7.17-7.53,11,11,0,0,0,10.25,1.84l.12,0,0-.14,14.53-4.75-4.2,5.63-2.34.76L59,117.9l19.24-6.28ZM51.14,41,38.77,45l3.94-9.6,8.62,5.28Zm1.25-2-8.9-5.46,4-9.66ZM45.9,19.07,37,13.61,41,4ZM39.2,3l-3.94,9.59L26.43,7.15ZM25.57,9l8.9,5.46-4,9.66ZM32.3,25.11l3.93-9.57L45,20.95Zm13.37-2.24-3.93,9.56L32.93,27Zm-13.62,6L41,34.3,37,44ZM42,46.07l7.24-2.36L46.64,47.5Zm33.21,62.78-8.9-5.46,4-9.66ZM68.73,89l-8.9-5.46,4-9.66Zm-7-16,.21.07-3.87,9.42-8.83-5.42Zm-7.67-2.68,4.52,1.58-7.53,2.46ZM48.4,78.89l8.9,5.46-4,9.66ZM55.13,95l3.93-9.57,8.82,5.41ZM68.5,92.79l-3.93,9.56L55.76,97Zm-13.62,6,8.9,5.45-4,9.65Zm6.71,16.15,3.94-9.6,8.85,5.42Z"/><polygon class="cls-5" points="55.33 68.6 55.48 68.65 66.26 65.13 59.45 44.28 48.95 47.71 48.65 48.15 55.33 68.6"/><path class="cls-6" d="M26.28,129.43l-5.53-8.49a2.14,2.14,0,0,0-.18-.24,1.09,1.09,0,0,0-.67-.44l-7.25-1.53a1.09,1.09,0,0,0-.79.13l-.26.15L3.1,124.54c-.43.28-.69.65-.58.82l1.35,2.07c.11.17.64.1,1.07-.19l5.75-3.67-1.62,7.68a1,1,0,0,0,.68,1.25L17,134c.59.12,1-.28,1.12-.87l1.62-7.68,3.78,5.68c.28.43.69.7.86.59l2.09-1.34C26.63,130.3,26.56,129.86,26.28,129.43Z"/><polygon class="cls-7" points="9.12 124.57 7.03 121.99 8.06 121.31 10.18 123.89 9.12 124.57"/><polygon class="cls-7" points="20.75 127.02 23.7 125.5 23.03 124.47 20.05 125.97 20.75 127.02"/><path class="cls-7" d="M17.67,129.83a1.1,1.1,0,0,1-1.3.85l-4.73-1a1.1,1.1,0,0,1-.85-1.3l1.3-6.18,1.3-.85,4.73,1,.85,1.3Z"/><rect class="cls-5" x="12.54" y="123.16" width="0.74" height="1.11" transform="translate(-110.8 110.81) rotate(-78.09)"/><rect class="cls-8" x="14.9" y="123.47" width="0.74" height="1.48" transform="translate(-109.43 113.59) rotate(-78.13)"/><rect class="cls-5" x="17.25" y="124.15" width="0.74" height="1.11" transform="translate(-108.03 116.19) rotate(-78.08)"/><rect class="cls-3" x="12.88" y="123.78" width="3.7" height="5.92" transform="translate(-112.33 115.03) rotate(-78.1)"/><circle class="cls-3" cx="12.52" cy="129.03" r="0.29" transform="translate(-116.31 114.56) rotate(-78.05)"/><circle class="cls-3" cx="14.18" cy="129.38" r="0.29" transform="translate(-115.34 116.46) rotate(-78.05)"/><circle class="cls-3" cx="15.84" cy="129.73" r="0.29" transform="translate(-114.37 118.36) rotate(-78.05)"/><rect class="cls-6" x="5.4" y="134.87" width="8.94" height="3.88" transform="translate(-126.03 118.26) rotate(-78.1)"/><rect class="cls-6" x="10.65" y="135.97" width="8.94" height="3.88" transform="translate(-122.95 124.27) rotate(-78.1)"/><rect class="cls-7" x="12.63" y="128.33" width="1.6" height="9.32" transform="translate(-119.47 118.7) rotate(-78.1)"/><rect class="cls-7" x="8.22" y="139.48" width="1.22" height="4.6" transform="translate(-131.73 121.19) rotate(-78.11)"/><rect class="cls-7" x="13.46" y="140.58" width="1.22" height="4.6" transform="translate(-128.64 127.17) rotate(-78.09)"/><circle class="cls-6" cx="16.93" cy="116.29" r="5.04" transform="translate(-100.35 108.89) rotate(-78.1)"/><ellipse class="cls-7" cx="16.86" cy="116.65" rx="4.08" ry="3.96" transform="translate(-100.76 109.09) rotate(-78.1)"/><path class="cls-9" d="M13,115.84a4,4,0,0,1,.53-1.5,4.18,4.18,0,0,1,1.1-1.19,3.93,3.93,0,0,1,5.72,1.21,4.18,4.18,0,0,1,.52,1.53,4,4,0,0,1-.12,1.58,4.31,4.31,0,0,0-.65-3,3.84,3.84,0,0,0-5.32-1.12A4.3,4.3,0,0,0,13,115.84Z"/><path class="cls-7" d="M2,129.23A.74.74,0,0,1,2,127.81a.64.64,0,0,0,.28-.18.65.65,0,0,0-1-.87.74.74,0,1,1-1.1-1,2.13,2.13,0,0,1,3.16,2.85,2.14,2.14,0,0,1-.92.6A.75.75,0,0,1,2,129.23Z"/><path class="cls-7" d="M25.33,134.14A.74.74,0,0,1,25,134a2.13,2.13,0,0,1,.75-3.6,2.13,2.13,0,0,1,2.69,1.35.74.74,0,0,1-1.41.47.65.65,0,0,0-1.23.41.64.64,0,0,0,.18.28.74.74,0,0,1-.65,1.28Z"/><path class="cls-10" d="M17.75,120.06a.37.37,0,0,1-.05-.71c2.11-.79,1.6-3.17,1.58-3.27a.37.37,0,0,1,.72-.16A3.5,3.5,0,0,1,18,120,.37.37,0,0,1,17.75,120.06Z"/><circle class="cls-10" cx="19.26" cy="114.89" r="0.42" transform="translate(-97.13 110.04) rotate(-78.09)"/></g></g></svg>