<svg id="Layer_1" data-name="Layer 1" xmlns="http://www.w3.org/2000/svg" viewBox="0 0 58.88 45.8"><defs><style>.cls-1{fill:#c1d82f;}</style></defs><title>Artboard 1</title><path class="cls-1" d="M2.55,6.94H25.24V12H5.1V29.29h5.66V33l3.6-3.76H33.65V12H28.31V6.94H36.2a2.56,2.56,0,0,1,2.55,2.55V31.84a2.55,2.55,0,0,1-2.55,2.55H16.51L5.66,45.8V34.39H2.55A2.55,2.55,0,0,1,0,31.84V9.49A2.56,2.56,0,0,1,2.55,6.94Z"/><path class="cls-1" d="M22.69,0H56.33a2.56,2.56,0,0,1,2.55,2.55V24.9a2.55,2.55,0,0,1-2.55,2.55H53.22V38.86L42.37,27.45H38.73v-5.1h5.8l3.6,3.76V22.35h5.66V5.1H25.24V22.35h5.33v5.1H22.69a2.55,2.55,0,0,1-2.55-2.55V2.55A2.56,2.56,0,0,1,22.69,0Z"/></svg>