<svg xmlns="http://www.w3.org/2000/svg" xmlns:xlink="http://www.w3.org/1999/xlink" viewBox="0 0 249.74 249.86"><defs><style>.cls-1{fill:none;}.cls-2{clip-path:url(#clip-path);}.cls-3{fill:#f2f2f2;}.cls-4{fill:#c6c6c6;}.cls-5{fill:#d4d4d4;}.cls-6{opacity:0.1;}</style><clipPath id="clip-path"><circle class="cls-1" cx="124.87" cy="124.87" r="124.87"/></clipPath></defs><title>Asset 3</title><g id="Layer_2" data-name="Layer 2"><g id="moon"><g class="cls-2"><circle class="cls-3" cx="124.87" cy="124.87" r="124.87"/><circle class="cls-4" cx="78.75" cy="42.71" r="18.15"/><path class="cls-5" d="M80.11,24.64a18.13,18.13,0,0,0,0,36.15,18.13,18.13,0,0,0,0-36.15Z"/><circle class="cls-4" cx="100.93" cy="217.8" r="15.23"/><path class="cls-5" d="M102.07,202.62a15.21,15.21,0,0,0,0,30.34,15.21,15.21,0,0,0,0-30.34Z"/><circle class="cls-4" cx="199.48" cy="62.53" r="15.23"/><path class="cls-5" d="M200.63,47.36a15.21,15.21,0,0,0,0,30.34,15.21,15.21,0,0,0,0-30.34Z"/><circle class="cls-4" cx="221.53" cy="161.66" r="10.7"/><path class="cls-5" d="M222.33,151a10.69,10.69,0,1,0,9.9,10.66A10.7,10.7,0,0,0,222.33,151Z"/><circle class="cls-4" cx="38.27" cy="172.13" r="10.7"/><path class="cls-5" d="M39.07,161.47a10.69,10.69,0,0,0,0,21.32,10.69,10.69,0,0,0,0-21.32Z"/><circle class="cls-4" cx="142.1" cy="33.19" r="6.46"/><path class="cls-5" d="M142.58,26.75a6.45,6.45,0,1,0,6,6.43A6.45,6.45,0,0,0,142.58,26.75Z"/><circle class="cls-4" cx="39.93" cy="75.13" r="6.46"/><path class="cls-5" d="M40.42,68.7a6.45,6.45,0,0,0,0,12.87,6.45,6.45,0,0,0,0-12.87Z"/><path class="cls-6" d="M232.2,61.45A124.48,124.48,0,0,0,161,5.39c10,18.21,73.79,148.3-89.69,232.55A125,125,0,0,0,232.2,61.45Z"/></g></g></g></svg>