<svg xmlns="http://www.w3.org/2000/svg" viewBox="0 0 746.7 746.71"><defs><style>.cls-1{isolation:isolate;}.cls-2,.cls-3{fill:#afb6bc;}.cls-3{mix-blend-mode:multiply;}</style></defs><title>planet-grey</title><g class="cls-1"><g id="bg"><path class="cls-2" d="M746.7,373.37c0,206.19-167.15,373.34-373.36,373.34S0,579.56,0,373.37,167.15,0,373.34,0,746.7,167.16,746.7,373.37Z"/><path class="cls-3" d="M552,701.27C668,637.94,746.7,514.84,746.7,373.37,746.7,167.16,579.55,0,373.34,0S0,167.16,0,373.37A371.85,371.85,0,0,0,39.92,541.49C40,541.55,200.21,672.77,552,701.27Z"/><path class="cls-3" d="M373.34,0C167.15,0,0,167.16,0,373.37q0,13.88,1,27.5c20.35,21.33,60.63,52.71,153.29,74.39,94.19,22.05,111.93,20,244.36,60.12s185.63,9.45,244.65,12c26.84,1.18,47.5-.79,62.13-3.28A371.66,371.66,0,0,0,746.7,373.37C746.7,167.16,579.55,0,373.34,0Z"/><path class="cls-2" d="M373.34,0C188.87,0,35.66,133.81,5.43,309.66c41,20.06,313.09,141.54,741.25,65.25,0-.51,0-1,0-1.55C746.7,167.16,579.55,0,373.34,0Z"/><path class="cls-2" d="M64.43,163.65c.05,0,187,66,377.23,65.54,167-.38,249,24.27,290.1,39.35C686.47,113.37,543.14,0,373.34,0,244.89,0,131.61,64.88,64.43,163.65Z"/><path class="cls-3" d="M695.11,183.91C630.17,73.85,510.38,0,373.34,0A371.51,371.51,0,0,0,180.11,53.85h0s155.95,87.89,515,130.06Z"/><path class="cls-3" d="M746.7,373.37C746.7,196,623,47.59,457.12,9.55c4.81,5.9,298.18,369.88-155.73,730.15a374.75,374.75,0,0,0,72,7C579.55,746.71,746.7,579.56,746.7,373.37Z"/></g></g></svg>