<svg id="Layer_1" data-name="Layer 1" xmlns="http://www.w3.org/2000/svg" xmlns:xlink="http://www.w3.org/1999/xlink" viewBox="0 0 145 145"><defs><style>.cls-1{fill:none;}.cls-2{clip-path:url(#clip-path);}.cls-3{fill:#68b4e8;}.cls-4{fill:#65b3ea;}.cls-5{fill:#4aa0d3;}.cls-6{opacity:0.1;isolation:isolate;}</style><clipPath id="clip-path"><circle class="cls-1" cx="72.5" cy="72.5" r="72.5"/></clipPath></defs><title>planet-blue</title><g id="Layer_2" data-name="Layer 2"><g id="development"><g class="cls-2"><circle class="cls-3" cx="72.5" cy="72.5" r="72.5"/><path class="cls-3" d="M41.35,70.54C56.65,78.45,72.83,84,88.56,90.78c16.29,6.69,32,7.32,49.78,7.16,1.37,0,2.82-.1,4.29-.2q-.52,1.44-1.09,2.84c.71-1.73,1.37-3.48,2-5.31a74.58,74.58,0,0,0,3.57-20.48c-15.43-1.28-29.16,5.31-45.67-.41C81.79,68,66.11,61.83,50.19,47.83c-3.09-2.44-22.6-19.92-26.61-31.73a74.09,74.09,0,0,0-18,23.51,73.25,73.25,0,0,1,4.19-7.48C23.51,43.55,24.27,61.2,41.35,70.54Z"/><path class="cls-3" d="M89.31,11c13.11,5.74,26.55,11.81,40.86,14.08A74.53,74.53,0,0,0,70.88-2.2C76.34,3.15,82.22,7.88,89.31,11Z"/><path class="cls-4" d="M9.32,89.44c7.74,4.78,13.22,14.8,20.48,20.2,7.9,6.4,17.22,10.5,27.08,14,14.46,5.2,31.31,11.84,47.47,11.85,1.39,0,4.63-.14,8.74-.46A74.45,74.45,0,0,0,132.39,117q-.86,1.16-1.77,2.28c-8.45-.49-15.37-4.51-24.12-6.29-17.11-3.79-33.37-10-49.69-17.2C38.76,88.14,23.23,78,12.07,61.34,9.41,57.76,5.24,53,2.21,47.8c-.2.56-.41,1.11-.59,1.68A74.21,74.21,0,0,0-.24,88.68C2.14,86.93,5.62,87.3,9.32,89.44Z"/><path class="cls-3" d="M80.48,146.52c-3.43-1.37-6.83-2.81-10-4.27-16.9-7.18-34.79-13.16-50.82-22.66-2.49-1.52-5.7-3.41-8.93-5.56q-1.93-2.87-3.6-5.91a74.49,74.49,0,0,0,84,36.47A74.68,74.68,0,0,1,80.48,146.52Z"/><path class="cls-3" d="M67.6,43.9A170.5,170.5,0,0,0,121.53,59c6.45.71,17.09,2.46,24.46.58q.33,1.85.55,3.72a74.8,74.8,0,0,0-9.86-29q.95,1.6,1.82,3.25C109,34.21,67.29,24.88,53.85.18a74.94,74.94,0,0,0-20.9,9C42.53,17.52,60.14,40.66,67.6,43.9Z"/><path class="cls-5" d="M19.62,119.59c16,9.5,33.91,15.47,50.82,22.66,3.25,1.46,6.62,2.9,10,4.27A74.68,74.68,0,0,0,91.1,144.6l.42-.11q1.75-.46,3.47-1l.61-.19,1.83-.62.76-.29q1.42-.52,2.81-1.09l1.19-.5,2-.92,1.57-.76,1.3-.66c.71-.37,1.41-.76,2.1-1.14l1.18-.69,1.57-.95,1-.67h0c-4.11.32-7.35.44-8.74.46-16.16,0-33-6.65-47.47-11.85-9.86-3.45-19.16-7.51-27.06-13.95C22.5,104.26,17,94.24,9.26,89.46,5.6,87.33,2.11,86.94-.27,88.7h0Q.11,90.35.55,92v.14q.44,1.6,1,3.18l.05.17Q2.08,97,2.65,98.56l.06.17Q3.3,100.24,4,101.8l.06.14q.67,1.52,1.4,3l0,.09q.76,1.52,1.56,3H7q1.66,3,3.6,5.91C13.93,116.19,17.13,118.05,19.62,119.59Z"/><path class="cls-5" d="M138.47,37.58q-.86-1.65-1.82-3.25l-.05-.09q-.93-1.55-1.94-3.07l-.05-.08q-1-1.52-2.12-3h0q-1.11-1.52-2.28-2.94h0c-14.35-2.28-27.8-8.34-40.9-14.1-7.08-3.14-13-7.87-18.42-13.22h0q-3.2.07-6.37.42h-.23a74.2,74.2,0,0,0-10.44,2h0C67.29,24.88,109,34.21,138.47,37.58Z"/><path class="cls-5" d="M59.38,92.53c16.34,7.24,32.61,13.38,49.69,17.2,8.74,1.78,15.67,5.79,24.12,6.29q.9-1.12,1.77-2.28l.17-.24q.85-1.19,1.61-2.35l0-.07A74.25,74.25,0,0,0,144,97.63l.09-.23q.58-1.4,1.09-2.84c-1.46.11-2.9.16-4.29.2-17.82.15-33.49-.47-49.78-7.16C75.4,80.86,59.23,75.28,43.93,67.37,26.91,58,26.14,40.36,12.36,29a73.25,73.25,0,0,0-4.22,7.51v.06q-.93,1.92-1.75,3.9v.08q-.86,2-1.62,4.05h0c3,5.16,7.24,10,9.86,13.54C25.79,74.8,41.3,84.95,59.38,92.53Z"/><path class="cls-5" d="M101.38,74.4c16.51,5.74,30.25-.87,45.67.41h0q.07-1.93,0-3.85h0q0-1.9-.17-3.79v-.08q-.13-1.85-.36-3.69v-.13q-.23-1.87-.55-3.72c-7.37,1.88-18,.12-24.46-.58A170.5,170.5,0,0,1,67.59,43.87c-7.45-3.21-25-26.35-34.64-34.69h0c-.65.41-1.29.83-1.93,1.26l-.76.52c-.56.39-1.12.76-1.68,1.18L27.52,13c-.49.36-1,.76-1.44,1.11s-.9.76-1.36,1.11-.76.62-1.13.94h0c4,11.82,23.51,29.29,26.6,31.8C66.1,61.89,81.78,68.09,101.38,74.4Z"/><path class="cls-6" d="M137.93,33.24A76.5,76.5,0,0,0,94.18-1.21c6.15,11.15,45.37,91.13-55.12,142.9A76.79,76.79,0,0,0,137.93,33.23Z"/></g></g></g></svg>