<svg id="Layer_1" data-name="Layer 1" xmlns="http://www.w3.org/2000/svg" viewBox="0 0 145 145"><defs><style>.cls-1{fill:#e15743;}.cls-2{fill:#d34c2d;}.cls-3{fill:#bf3d30;}</style></defs><title>planet-red</title><g id="Layer_2" data-name="Layer 2"><g id="UX"><circle class="cls-1" cx="72.5" cy="72.5" r="72.5"/><path class="cls-2" d="M145,72.5A72.55,72.55,0,0,0,54.58,2.24c.18.08,85.42,39.58,46.32,137A72.52,72.52,0,0,0,145,72.5Z"/><ellipse class="cls-3" cx="60.31" cy="12.07" rx="5.78" ry="3.58" transform="translate(-1.19 11.52) rotate(-10.8)"/><ellipse class="cls-3" cx="19.17" cy="48.08" rx="5.78" ry="2.76" transform="translate(-32.01 55.81) rotate(-76.86)"/><circle class="cls-3" cx="117.22" cy="67.72" r="5.58"/><path class="cls-3" d="M63.23,127.82a10.67,10.67,0,0,1-5.6,1.27,14.4,14.4,0,0,1-6-1.77c-5.64-3.14-19.91-20.09,1.89-20.09C77.49,107.23,68.11,125,63.23,127.82Z"/><ellipse class="cls-3" cx="79.17" cy="58.67" rx="13.54" ry="6.77"/><ellipse class="cls-3" cx="89.02" cy="21.17" rx="12" ry="6.13" transform="translate(-2.39 17.06) rotate(-10.8)"/><ellipse class="cls-3" cx="48.27" cy="37.28" rx="4.94" ry="2.79"/><path class="cls-3" d="M30.79,90.27c0,8-11.39,4.54-13.76,2.46a3,3,0,0,1,0-4.91C19.4,85.73,30.79,82.25,30.79,90.27Z"/><ellipse class="cls-3" cx="125.66" cy="99.93" rx="7.31" ry="4.28" transform="translate(-10.36 185.21) rotate(-70.58)"/><ellipse class="cls-3" cx="89.02" cy="82.96" rx="8.67" ry="5.07"/><circle class="cls-3" cx="36.81" cy="64.13" r="3.67"/></g></g></svg>