<svg id="Layer_1" data-name="Layer 1" xmlns="http://www.w3.org/2000/svg" xmlns:xlink="http://www.w3.org/1999/xlink" viewBox="0 0 145 145"><defs><style>.cls-1{fill:none;}.cls-2{clip-path:url(#clip-path);}.cls-3{fill:#73bf99;}.cls-4{fill:#59ae85;}.cls-5{opacity:0.1;isolation:isolate;}</style><clipPath id="clip-path"><circle class="cls-1" cx="72.5" cy="72.5" r="72.5"/></clipPath></defs><title>planet-green</title><g id="Layer_2" data-name="Layer 2"><g id="Layer_35" data-name="Layer 35"><g class="cls-2"><circle class="cls-3" cx="72.5" cy="72.5" r="72.5"/><path class="cls-4" d="M26.21,15.23A74.92,74.92,0,0,0,10,33a220.09,220.09,0,0,1,56.35,8.37c50.3,14.35,37.08,31.77,80.82,29a73.78,73.78,0,0,0-20.3-48C94.5,18.6,57.12,15.27,26.21,15.23Z"/><path class="cls-4" d="M4.4,47.08A71.92,71.92,0,0,0-.06,70.42,107.55,107.55,0,0,1,34,82.77c22.71,12.71,64.92,22.27,99.8,28.48a71.46,71.46,0,0,0,9-20.16c-45.47-1.25-71.68-19.56-114-36.82A116.19,116.19,0,0,0,4.4,47.08Z"/><path class="cls-4" d="M54.33,121.59c-5.49-5.47-10-10-16.48-14.59s-13.74-10.06-21-13.66A123.1,123.1,0,0,0-.63,88.76a44.45,44.45,0,0,0-12.94-.33,84.41,84.41,0,0,0,14.19,31c9.9,2.12,19.12,9.09,27.16,14.91a247.93,247.93,0,0,1,23.66,18.12,85.82,85.82,0,0,0,50.64-4.38,95.28,95.28,0,0,1-31.25-13.75C65.34,130.71,58.92,126.15,54.33,121.59Z"/><path class="cls-5" d="M147.3,76.92c0-.09-.2-.18-.19-.27V73.44A76.1,76.1,0,0,0,145.67,59h0a4.35,4.35,0,0,0-.15-.7c-.19-1-.41-1.91-.64-2.85h0c-.11-.43-.2-.86-.32-1.29h0c-.18-.69-.38-1.37-.58-2h0l-.1-.35q-.78-2.62-1.74-5.16l-.15-.39h0v-.08l-.23-.59h0c-.15-.39-.31-.78-.47-1.17h0c-.11-.27-.23-.54-.35-.81-.33-.78-.68-1.56-1-2.31h0l-.42-.87-.05-.11-.25-.51h0q-.66-1.33-1.37-2.62l-.11-.21h0l-.58-1h0l-.35-.59h0l-.12-.2-.39-.66L136,34h0c-.26-.43-.53-.85-.81-1.27h0q-1-1.56-2.07-3.06l-.14-.19L132.6,29l-.33-.47h0l-.12-.16h0c-.48-.64-1-1.27-1.46-1.88l-.28-.36h0l-.14-.23h0l-.1-.12h0l-.26-.31-.31-.37L128.68,24h0l-.38-.45-.36-.4c-.58-.65-1.16-1.3-1.76-1.92l-.81-.82c-.47-.48-.93-1-1.41-1.42l-.63-.58L123,18.2l-.81-.75-.59-.55-.6-.51-.1-.09-.16-.15-.71-.59-.83-.71-.31-.24-.66-.66-.68-.53-.18-.14-.58-.46h0l-.75-.54-.64-.46-.74-.54-.43-.23L114.1,11h0q-1.13-.78-2.3-1.52h0l-.17-.11c-.77-.48-1.54-.95-2.33-1.4l-.39-.23h-.06q-1.26-.72-2.56-1.39h0l-.15-.08h-.06l-.14-.07-.71-.34-1.63-.8-.37-.19L103,4.76l-.54-.24-1.57-.69-.55-.24-.43-.17-.24-.09-2-1.13-.7-.27-.51-.18h0l-.64-.24-.33-.11-.74-.2L93.92.93,93.57.82,93.19.68,92.5.49,91.65.21,90.83,0h-.18a12,12,0,0,0-3-.8h0l.12.15h0v.06l.18.23h0l.16.21.2.27.26.35.22.3.35.48.23.33.42.61.24.35.5.74.24.36.57.88.22.35.63,1L92.3,6l.08.13.64,1,.21.36.71,1.22L94.1,9l.9,1.61h0l.09.17.79,1.48.3.58.56,1.1.1.2.3.6.58,1.2.39.83c.21.44.41.9.62,1.36l.39.88.51,1.18.48,1.16q.39.95.77,1.92l.47,1.23c.16.42.31.84.46,1.26l.43,1.23.4,1.18.05.16q.35,1.06.68,2.15v.07c.12.4.24.81.35,1.22s.28,1,.41,1.45.24.89.35,1.33.27,1.06.39,1.6c.08.32.16.64.23,1l.06.27.11.51q.21.94.4,1.88c.06.28.11.56.16.85l.12.62q.15.82.29,1.66v.24c.06.39.13.78.19,1.17h0q.18,1.21.33,2.44c.06.46.11.92.16,1.38s.12,1.19.17,1.79.08.93.12,1.39q.1,1.38.16,2.77v4.88c0,.77,0,1.54-.06,2.3v1a6,6,0,0,1-.06,1c0,.66-.08,1.32-.14,2s-.1,1.1-.15,1.66-.15,1.31-.23,2-.19,1.48-.3,2.21-.24,1.58-.39,2.37c-.1.57-.22,1.15-.33,1.73s-.26,1.27-.4,1.9-.22,1-.34,1.51l-.17.69q-.27,1.08-.56,2.16l-.19.69q-.32,1.14-.67,2.27l-.18.57q-.42,1.33-.88,2.65l-.07.2q-1,3-2.34,6v.07q-.61,1.43-1.28,2.85l-.24.52q-.58,1.26-1.2,2.46l-.34.66q-.6,1.18-1.25,2.36l-.37.67q-.68,1.22-1.4,2.44l-.33.56q-.83,1.39-1.71,2.79l-.13.22-2,3-.12.18q-1,1.47-2.07,2.94l-.21.29q-1,1.44-2.16,2.87l-.28.37q-1.1,1.42-2.27,2.84l-.33.4q-1.17,1.42-2.42,2.84l-.34.39q-1.26,1.44-2.59,2.87l-.31.33-2.81,3-.22.22Q72,133.49,70.44,135h0a195.82,195.82,0,0,1-14.9,13,76.91,76.91,0,0,0,51.36-7.84h0c.64-.35,1.26-.72,1.88-1.08s1.51-.9,2.25-1.36l1.57-1v.17a1.11,1.11,0,0,1,.6-.21h0c.13,0,.26-.37.39-.46,1-.68,2-1.47,2.92-2.19l-.2,0c.65-.5,1.73-1,1.73-1.56h0c1-.18.66-.36.88-.54H119c.64-.53,1.32-1.08,1.94-1.63,1.22-1.08,2.45-2.19,3.6-3.35h0c.73-.74,1.46-1.49,2.16-2.25h0c.41-.45.8-.91,1.19-1.36s.65-.73,1-1.11h0q1.47-1.76,2.85-3.6h0l.09-.13q1.13-1.53,2.18-3.11c.5-.75,1-1.5,1.45-2.25h0l.16-.25h0c.34-.56.65-1.12,1-1.69s.72-1.26,1.07-1.89h0l.62-1.21c.3-.58.6-1.15.88-1.74h0c.46-1,.9-1.93,1.32-2.92h0l.34-.81h0q.51-1.22,1-2.46h0L142,100h0l.32-.9c.32-.9.63-1.8.92-2.7q.65-2,1.18-4.14h0c.1-.39.18-.78.27-1.16l.09-.37h0c.13-.56.27-1.12.39-1.69h0a3.37,3.37,0,0,1,.12-.62h0c.12-.6-.07-1.21,0-1.81,0,0-.26-.11-.26-.16h0c0-.26.39-.52.43-.79h.15a6.35,6.35,0,0,1,.2-.84h0c.05-.34.1-.68.15-1h0c0-.36-.54-.72-.5-1.08s-.48-.83-.48-1.25h0c2-.7.75-1.41.81-2.11h.52c0-.46.65-.92.65-1.39h0v-.8Z"/></g></g></g></svg>