<svg id="Layer_1" data-name="Layer 1" xmlns="http://www.w3.org/2000/svg" xmlns:xlink="http://www.w3.org/1999/xlink" viewBox="0 0 145 145"><defs><style>.cls-1{fill:none;}.cls-2{clip-path:url(#clip-path);}.cls-3{fill:#d1de42;}.cls-4{fill:#c0d62f;}.cls-5{fill:#010101;opacity:0.1;isolation:isolate;}</style><clipPath id="clip-path"><circle class="cls-1" cx="72.5" cy="72.5" r="72.48" transform="translate(-18.87 119.02) rotate(-71.98)"/></clipPath></defs><title>planet-yellow</title><g class="cls-2"><circle class="cls-3" cx="72.49" cy="72.49" r="72.48" transform="translate(-18.87 119) rotate(-71.98)"/><rect class="cls-3" x="81.74" y="-75.73" width="23.65" height="168.77" transform="translate(56.39 94.95) rotate(-71.98)"/><rect class="cls-4" x="83.14" y="-61.34" width="11.35" height="168.65" transform="translate(39.41 100.29) rotate(-71.93)"/><rect class="cls-4" x="79.02" y="-39.97" width="5.82" height="168.77" transform="translate(14.35 108.58) rotate(-71.98)"/><rect class="cls-4" x="72.25" y="-25" width="9.62" height="168.77" transform="translate(-3.25 114.29) rotate(-71.98)"/><rect class="cls-4" x="63.58" y="-11.72" width="18.32" height="168.77" transform="translate(-18.86 119.36) rotate(-71.98)"/><rect class="cls-3" x="59.07" y="21.37" width="5.82" height="168.77" transform="translate(-57.76 131.98) rotate(-71.98)"/><rect class="cls-4" x="52.29" y="36.34" width="9.62" height="168.77" transform="translate(-75.36 137.68) rotate(-71.98)"/><rect class="cls-4" x="63.82" y="8.02" width="5" height="168.77" transform="translate(-42.06 126.88) rotate(-71.98)"/><rect class="cls-4" x="62.27" y="12.77" width="5" height="168.77" transform="translate(-47.66 128.7) rotate(-71.98)"/><path class="cls-5" d="M137.13,36a73.44,73.44,0,0,0-42-33.11C101,13.67,138.67,90.41,42.22,140.12A73.74,73.74,0,0,0,137.13,36Z"/></g></svg>