<svg xmlns="http://www.w3.org/2000/svg" viewBox="0 0 170.43 84.17"><defs><style>.cls-1{fill:#9f3c2b;}.cls-2{fill:#e15743;}.cls-3{fill:#d6d4d4;}.cls-4{fill:#f4efef;}.cls-5{fill:#d1c6b8;}.cls-6{fill:#e8ad62;}.cls-7{opacity:0.7;}.cls-8{fill:#020202;opacity:0.2;}.cls-9{fill:#c13b29;}.cls-10{fill:#ebfaff;}.cls-11{fill:#e8e8e9;}</style></defs><title>Asset 2</title><g id="Layer_2" data-name="Layer 2"><g id="rocket"><path class="cls-1" d="M61.57,69.78c-1.45-.2-2.91-.37-4.37-.49-5.83-.47-11.65.65-17.44-.47-5.4-1-10.38-3.86-15.23-6.34A27,27,0,0,0,17.91,60,6.86,6.86,0,0,0,16,59.92c0,.19,0,.38,0,.57A17.6,17.6,0,0,1,6.87,76H3.37v1.44a46.84,46.84,0,0,0,24.75,6.76C42.26,84.17,54.66,78.41,61.57,69.78Z"/><path class="cls-2" d="M16,58.48a6.86,6.86,0,0,1,1.89.11,27,27,0,0,1,6.62,2.46c4.84,2.47,9.83,5.3,15.23,6.34,5.78,1.12,11.61,0,17.44.47,1.46.12,2.92.29,4.37.49C54.66,77,42.26,82.74,28.11,82.74A46.84,46.84,0,0,1,3.37,76,17.56,17.56,0,0,0,16,59C16,58.86,16,58.67,16,58.48Z"/><path class="cls-1" d="M16.87,25.53a35.11,35.11,0,0,0,7.67-2.41c5.62-2.42,11.4-5.17,17.66-6.19,6.71-1.09,13.47,0,20.22-.46,1.7-.11,3.39-.28,5.07-.47-.57-.6-1.17-1.18-1.8-1.75-1.09.11-2.18.21-3.27.28C55.67,15,48.91,13.9,42.2,15c-6.26,1-12,3.77-17.66,6.19a35.11,35.11,0,0,1-7.67,2.41,9.43,9.43,0,0,1-2.2.11c0-.19,0-.37,0-.56C14.69,15.26,8.48,8.63,0,6.6V8.54c8.48,2,14.69,8.66,14.69,16.54,0,.19,0,.37,0,.56A9.42,9.42,0,0,0,16.87,25.53Z"/><path class="cls-2" d="M14.68,23.69a9.43,9.43,0,0,0,2.2-.11,35.11,35.11,0,0,0,7.67-2.41C30.16,18.76,35.94,16,42.2,15c6.71-1.09,13.47,0,20.22-.46,1.7-.11,3.39-.28,5.07-.47C59.49,5.62,45.11,0,28.7,0A62.17,62.17,0,0,0,0,6.6c8.48,2,14.69,8.66,14.69,16.54C14.69,23.32,14.68,23.51,14.68,23.69Z"/><path class="cls-3" d="M12.88,57.29c-2.15-4.88-3.16-13.83-3.36-15.81.2-2,1.21-10.93,3.36-15.81H3.64a45.53,45.53,0,0,0-2.43,15.4h0c0,.14,0,.27,0,.41s0,.27,0,.41h0a45.54,45.54,0,0,0,2.43,15.4Z"/><path class="cls-2" d="M17.12,57.29C15,52.41,14,43.46,13.76,41.48c.2-2,1.21-10.93,3.36-15.81H7.88a45.53,45.53,0,0,0-2.43,15.4h0c0,.14,0,.27,0,.41s0,.27,0,.41h0a45.54,45.54,0,0,0,2.43,15.4Z"/><path class="cls-4" d="M134,70a75.48,75.48,0,0,0,36.48-28.54A75.48,75.48,0,0,0,134,12.93c-17.11-6.12-55.73-6.81-84.43,0s-37.45,9.24-37.45,9.24-3.89,7-3.89,18.65a51.27,51.27,0,0,0,3.89,20S20.83,63.21,49.52,70,116.84,76.14,134,70Z"/><polygon class="cls-5" points="141.16 54.85 141.16 54.85 141.17 54.85 141.16 54.85"/><path class="cls-2" d="M138.85,68a75.66,75.66,0,0,0,31.58-26.57,75.63,75.63,0,0,0-31.77-26.66C138.7,14.92,146.37,34.44,138.85,68Z"/><path class="cls-6" d="M141.17,54.85"/><g class="cls-7"><path class="cls-8" d="M3.66,57.34l7.23.34c.66,1.92,1.18,3.18,1.18,3.18S20.83,63.21,49.52,70s67.32,6.13,84.43,0A75.59,75.59,0,0,0,170.3,41.78H9.54s-8.13-.16-8.33.2S1.8,53.05,3.57,57.13c.09.2,0,0,.09.2m-.29-.78,0,.08Z"/></g><path class="cls-9" d="M132.36,41.74A22,22,0,0,1,110.42,63h0A22,22,0,0,1,88.48,41.74"/><path class="cls-2" d="M88.48,41.74q0-.35,0-.7a21.95,21.95,0,0,1,43.9,0q0,.35,0,.7"/><path class="cls-10" d="M110.48,25.79a15.25,15.25,0,1,0,15.2,15.3,15.27,15.27,0,0,0-15.2-15.3Z"/><path class="cls-11" d="M122.8,46.69a16.37,16.37,0,0,1-23,2.17,17.74,17.74,0,0,1-4.33-4.78,15.75,15.75,0,0,0,5.52,8.9,15.25,15.25,0,0,0,21.38-2.11,15,15,0,0,0,3.42-9.64A16.18,16.18,0,0,1,122.8,46.69Z"/><path class="cls-1" d="M45.5,41.92A146,146,0,0,1,61,42.74V40.41c-7.23-2.52-20.19-4.2-35-4.2a155.51,155.51,0,0,0-25.89,2V40.8l1.45,0c6.86.73,11.75,2.59,11.8,4.78A134.59,134.59,0,0,1,45.5,41.92Z"/><path class="cls-2" d="M61,42.87V40.41c-7.23-2.52-20.19-4.2-35-4.2a155.51,155.51,0,0,0-25.89,2v2.46a155.51,155.51,0,0,1,25.89-2C40.85,38.67,53.81,40.35,61,42.87Z"/></g></g></svg>