<svg xmlns="http://www.w3.org/2000/svg" viewBox="0 0 31 31"><defs><style>.cls-1{fill:#7189c5;}.cls-2{fill:#56534f;}.cls-3{fill:#3a3835;}.cls-4{fill:#67645d;}.cls-5{fill:#494742;}.cls-6{fill:#afaeac;}.cls-7{fill:#9b9995;}.cls-8{fill:#8e8c88;}</style></defs><title>Asset 11</title><g id="Layer_2" data-name="Layer 2"><g id="stellite"><path class="cls-1" d="M30.48,5.62l-8.1,8.1a1.76,1.76,0,0,1-2.49,0L17.27,11.1a1.76,1.76,0,0,1,0-2.49l8.1-8.1a1.76,1.76,0,0,1,2.49,0l2.62,2.62A1.76,1.76,0,0,1,30.48,5.62ZM17.55,8.89a1.37,1.37,0,0,0,0,1.93l2.62,2.62a1.37,1.37,0,0,0,1.93,0l8.1-8.1a1.37,1.37,0,0,0,0-1.93L27.58.79a1.37,1.37,0,0,0-1.93,0Z"/><rect class="cls-1" x="15.9" y="6.24" width="14.58" height="0.39" transform="translate(2.24 18.28) rotate(-45)"/><rect class="cls-1" x="17.28" y="7.62" width="14.58" height="0.39" transform="translate(1.67 19.66) rotate(-45)"/><rect class="cls-1" x="20" y="7.39" width="0.39" height="6.84" transform="translate(-1.73 17.44) rotate(-44.99)"/><rect class="cls-1" x="21.84" y="5.54" width="0.39" height="6.84" transform="translate(0.12 18.2) rotate(-44.99)"/><rect class="cls-1" x="23.68" y="3.7" width="0.39" height="6.84" transform="translate(1.96 18.97) rotate(-44.99)"/><rect class="cls-1" x="25.52" y="1.86" width="0.39" height="6.84" transform="translate(3.8 19.74) rotate(-45.01)"/><rect class="cls-1" x="27.37" y="0.02" width="0.39" height="6.84" transform="translate(5.64 20.49) rotate(-44.99)"/><path class="cls-1" d="M13.73,22.38l-8.1,8.1a1.76,1.76,0,0,1-2.49,0L.51,27.86a1.76,1.76,0,0,1,0-2.49l8.1-8.1a1.76,1.76,0,0,1,2.49,0l2.62,2.62A1.76,1.76,0,0,1,13.73,22.38ZM.79,25.65a1.37,1.37,0,0,0,0,1.93l2.62,2.62a1.37,1.37,0,0,0,1.93,0l8.1-8.1a1.37,1.37,0,0,0,0-1.93l-2.62-2.62a1.37,1.37,0,0,0-1.93,0Z"/><rect class="cls-1" x="-0.86" y="22.99" width="14.59" height="0.39" transform="translate(-14.51 11.34) rotate(-45)"/><rect class="cls-1" x="0.52" y="24.37" width="14.58" height="0.39" transform="translate(-15.08 12.72) rotate(-45)"/><rect class="cls-1" x="3.24" y="24.14" width="0.39" height="6.84" transform="translate(-18.49 10.51) rotate(-45.02)"/><rect class="cls-1" x="5.08" y="22.3" width="0.39" height="6.84" transform="translate(-16.64 11.27) rotate(-45)"/><rect class="cls-1" x="6.93" y="20.46" width="0.39" height="6.84" transform="translate(-14.8 12.03) rotate(-44.99)"/><rect class="cls-1" x="8.77" y="18.62" width="0.39" height="6.84" transform="translate(-12.96 12.79) rotate(-45)"/><rect class="cls-1" x="10.61" y="16.78" width="0.39" height="6.84" transform="translate(-11.11 13.55) rotate(-44.99)"/><circle class="cls-2" cx="22.58" cy="22.58" r="3.61" transform="translate(-9.35 22.58) rotate(-45)"/><path class="cls-3" d="M25.13,20a3.6,3.6,0,0,0-4.34-.58l-.84,2A4.17,4.17,0,0,1,25,23.58l1.18-1A3.59,3.59,0,0,0,25.13,20Z"/><path class="cls-1" d="M8.13,7.8,6.22,5.88a1,1,0,1,0-.34.34L7.8,8.13Z"/><path class="cls-4" d="M10,16.13l5.1,5.1.58.58a2.79,2.79,0,0,0,3.95,0l2.22-2.22a2.79,2.79,0,0,0,0-3.95l-.58-.58L16.13,10,13.27,7.1,7.1,13.27Z"/><polygon class="cls-5" points="19.95 21.43 19.95 21.43 19.95 21.43 19.95 21.43"/><path class="cls-5" d="M21.8,15.63l-.58-.58L16.6,10.43,14.72,14,20,19.27s.91.73,0,2.15h0l1.85-1.85A2.79,2.79,0,0,0,21.8,15.63Z"/><path class="cls-6" d="M13.27,7.1l-.6.6A7.24,7.24,0,0,0,12.06,2L7,7l-5,5a7.24,7.24,0,0,0,5.69.61l-.6.6,4.19,4.19,6.17-6.17Z"/><path class="cls-7" d="M14.72,14l2.74-2.74L13.27,7.1l-.6.6A7.24,7.24,0,0,0,12.06,2L9.82,4.25a6.16,6.16,0,0,1,.82,5.49Z"/><polygon class="cls-1" points="24.22 23.88 26.41 26.06 26.07 26.39 23.88 24.21 24.22 23.88"/><polygon class="cls-6" points="26.14 21.96 27.32 23.14 23.14 27.3 21.96 26.13 26.14 21.96"/><polygon class="cls-8" points="24.84 23.26 25.97 24.48 27.32 23.14 26.14 21.96 24.84 23.26"/></g></g></svg>