<svg xmlns="http://www.w3.org/2000/svg" viewBox="0 0 63.29 45.68"><defs><style>.cls-1{fill:#f6cb51;}.cls-2{fill:#13a89e;}.cls-3,.cls-5{fill:#3f4953;}.cls-4{fill:#f2e7da;}.cls-5{stroke:#3f4953;stroke-miterlimit:10;stroke-width:1.03px;}</style></defs><title>Asset 12</title><g id="Layer_2" data-name="Layer 2"><g id="alien"><path class="cls-1" d="M9.38,17.57c.42,11.85,14.06,37.2,47.28,19.92"/><path class="cls-2" d="M26.7,8.7c-1.44-.33-22.29-5.17-25.45.35C-9.38,24.53,50.78,59.39,63,39.92c2.65-6-16.54-20.41-16.54-20.41"/><path class="cls-3" d="M54.62,26.44c-2.41,4.76-12.94,4.28-23.52-1.07S13.9,11.81,16.31,7,31.35-1.39,41.93,4,57,21.68,54.62,26.44Z"/><circle class="cls-4" cx="14.78" cy="25.92" r="2.15" transform="translate(-15.03 27.41) rotate(-63.17)"/><circle class="cls-4" cx="9.43" cy="20.02" r="2.15" transform="translate(-12.69 19.4) rotate(-63.17)"/><circle class="cls-4" cx="5.65" cy="13.25" r="2.15" transform="translate(-8.72 12.31) rotate(-63.16)"/><circle class="cls-4" cx="21.15" cy="30.76" r="2.15" transform="translate(-15.84 35.74) rotate(-63.16)"/><circle class="cls-4" cx="29.45" cy="35.76" r="2.15" transform="translate(-15.75 45.89) rotate(-63.16)"/><circle class="cls-4" cx="37.92" cy="38.84" r="2.15" transform="translate(-13.86 55.12) rotate(-63.14)"/><circle class="cls-4" cx="47.83" cy="40.65" r="2.15" transform="translate(-10.03 64.98) rotate(-63.17)"/><circle class="cls-4" cx="55.68" cy="39.41" r="2.15" transform="translate(-4.62 71.3) rotate(-63.16)"/><path class="cls-4" d="M26.18,18.46c-5.68-1.29,17.38,12.41,26.53,7.81C58.17,21.81,31.93,19.77,26.18,18.46Z"/><path class="cls-3" d="M41.82,5.83c1.32-2,2.8-4.67,5.49-4.86,1.7-.12,4,.62,3.48,2.67-.14.6,1.83.29,2-.3.68-2.92-2.89-3.44-5-3.33C44,.19,41.86,3,40,5.88c-.43.67,1.52.42,1.82,0Z"/><circle class="cls-5" cx="51.77" cy="3.97" r="1.73"/></g></g></svg>