<svg xmlns="http://www.w3.org/2000/svg" viewBox="0 0 96.87 76.36"><defs><style>.cls-1{isolation:isolate;}.cls-2{fill:#ccc;mix-blend-mode:multiply;}.cls-3{fill:#1bcdff;}.cls-4{fill:gray;}.cls-5{fill:#f2f2f2;}.cls-6{fill:#e6e6e6;}</style></defs><title>Asset 9</title><g class="cls-1"><g id="Layer_2" data-name="Layer 2"><g id="satellite_1" data-name="satellite 1"><path class="cls-2" d="M34.43,67.1l-.43.23a18.16,18.16,0,0,1-3.62,4.42A19.53,19.53,0,0,0,34.43,67.1Z"/><path class="cls-3" d="M34,67.33l-6.46,3.4L29,72.83c.48-.35.92-.71,1.35-1.08A18.16,18.16,0,0,0,34,67.33Z"/><path class="cls-4" d="M27.53,70.73,34,67.33l.43-.23L96.87,34.25,36.54,61.67l-.45.2L24.86,67,12.35,49.34l10.23-9,.35-.3L68.75,0,17.94,39.52l-.47.36L9.84,45.81,7.91,43.09c.49-.34,1-.63,1.46-.92a18.5,18.5,0,0,0-1.68,1.06A18.25,18.25,0,1,0,28.82,73a18.44,18.44,0,0,0,1.55-1.24c-.43.37-.88.73-1.35,1.08Z"/><path class="cls-2" d="M36.09,61.87l.45-.2a16.25,16.25,0,0,0,.3-3.24l-.36.19A18.32,18.32,0,0,1,36.09,61.87Z"/><path class="cls-2" d="M17.94,39.52a18.41,18.41,0,0,0-8.57,2.65,18.12,18.12,0,0,1,8.1-2.29Z"/><path class="cls-5" d="M9.84,45.81l7.63-5.93a18.12,18.12,0,0,0-8.1,2.29c-.49.29-1,.58-1.46.92Z"/><path class="cls-6" d="M29,72.83c.48-.35.92-.71,1.35-1.08A18.16,18.16,0,0,0,34,67.33l-6.46,3.4Z"/><path class="cls-6" d="M36.25,54.06a20.44,20.44,0,0,0-3.12-6.52,21.16,21.16,0,0,0-3-3.42l38.66-33.8L26.94,41.78a17,17,0,0,0-4-1.69l-.35.3-10.23,9L24.86,67l11.23-5.1a18.32,18.32,0,0,0,.38-3.26l.36-.19L87.11,32.34Z"/></g></g></g></svg>